<svg viewBox="0 0 16 16" xmlns="http://www.w3.org/2000/svg" xmlns:xlink="http://www.w3.org/1999/xlink" width="16.000000" height="16.000000" fill="none">
	<rect id="Facebook / Negative" width="16.000000" height="16.000000" x="0.000000" y="0.000000" fill="rgb(255,255,255)" fill-opacity="0" />
	<path id="Vector" d="M16 8C16 3.58172 12.4183 0 8 0C3.58172 0 0 3.58172 0 8C0 11.993 2.92547 15.3027 6.75 15.9028L6.75 10.3125L4.71875 10.3125L4.71875 8L6.75 8L6.75 6.2375C6.75 4.2325 7.94438 3.125 9.77172 3.125C10.6467 3.125 11.5625 3.28125 11.5625 3.28125L11.5625 5.25L10.5538 5.25C9.56 5.25 9.25 5.86672 9.25 6.5L9.25 8L11.4688 8L11.1141 10.3125L9.25 10.3125L9.25 15.9028C13.0745 15.3027 16 11.993 16 8Z" fill="rgb(255,255,255)" fill-rule="nonzero" />
</svg>
