<svg viewBox="0 0 16 16" xmlns="http://www.w3.org/2000/svg" xmlns:xlink="http://www.w3.org/1999/xlink" width="16.000000" height="16.000000" fill="none">
	<rect id="LinkedIn / Negative" width="16.000000" height="16.000000" x="0.000000" y="0.000000" fill="rgb(255,255,255)" fill-opacity="0" />
	<g id="Group">
		<path id="Vector" d="M14.8156 0L1.18125 0C0.528125 0 0 0.515625 0 1.15313L0 14.8438C0 15.4812 0.528125 16 1.18125 16L14.8156 16C15.4688 16 16 15.4813 16 14.8469L16 1.15313C16 0.515625 15.4688 0 14.8156 0ZM4.74687 13.6344L2.37188 13.6344L2.37188 5.99687L4.74687 5.99687L4.74687 13.6344ZM3.55938 4.95625C2.79688 4.95625 2.18125 4.34062 2.18125 3.58125C2.18125 2.82188 2.79688 2.20625 3.55938 2.20625C4.31875 2.20625 4.93437 2.82188 4.93437 3.58125C4.93437 4.3375 4.31875 4.95625 3.55938 4.95625ZM13.6344 13.6344L11.2625 13.6344L11.2625 9.92188C11.2625 9.0375 11.2469 7.89687 10.0281 7.89687C8.79375 7.89687 8.60625 8.8625 8.60625 9.85938L8.60625 13.6344L6.2375 13.6344L6.2375 5.99687L8.5125 5.99687L8.5125 7.04063L8.54375 7.04063C8.85938 6.44063 9.63438 5.80625 10.7875 5.80625C13.1906 5.80625 13.6344 7.3875 13.6344 9.44375L13.6344 13.6344Z" fill="rgb(255,255,255)" fill-rule="nonzero" />
	</g>
</svg>
